<svg width="188" height="104" viewBox="0 0 188 104" fill="none" xmlns="http://www.w3.org/2000/svg">
<path d="M0 38.7855V61.9859H15.1001V58.024H4.63925V38.7855H0Z" fill="#F50000"/>
<path d="M37.8523 37.5374V61.9859H42.3848V56.9155L44.064 55.0598L48.4158 61.9859H53.6996L46.9543 51.7426L53.0222 44.8535H47.9888L42.3848 51.7754V37.5374H37.8523Z" fill="#F50000"/>
<path d="M64.8382 54.8299C64.0926 54.4286 63.2586 54.2197 62.4118 54.2223C60.589 54.2223 59.1972 55.0803 59.1972 56.6856C59.1972 58.2908 60.3426 58.8985 61.484 58.8985C62.3809 58.8834 63.2359 58.5156 63.8637 57.8747C64.4914 57.2339 64.8416 56.3715 64.8382 55.4745V54.8299ZM64.8382 50.2604C64.8751 48.2077 63.9801 47.3866 62.1614 47.3866C60.6629 47.3866 59.6611 48.027 59.6611 49.0616C59.6812 49.2781 59.7454 49.4882 59.8499 49.6789C59.9545 49.8696 60.097 50.0368 60.2687 50.1701L56.0934 51.2417C55.623 50.6411 55.3711 49.8983 55.3791 49.1355C55.3791 46.1385 58.4828 44.3526 62.4118 44.3526C66.5174 44.3526 69.3337 45.8141 69.3337 50.3836V57.2029C69.3337 58.2005 69.7443 58.5577 70.2287 58.5577C70.5964 58.53 70.9457 58.3862 71.2264 58.1472V61.9653C70.3943 62.2266 69.5284 62.3649 68.6563 62.3758C66.193 62.3758 65.0886 60.6597 64.9819 58.4838C64.1238 61.0169 62.108 62.3758 59.6981 62.3758C56.8242 62.3758 54.521 60.4462 54.521 57.1988C54.521 53.7009 57.7726 51.915 61.3033 51.915C62.5289 51.8789 63.744 52.1499 64.8382 52.7032V50.2604Z" fill="#F50000"/>
<path d="M78.2919 37.5374H73.7594V61.9859H78.2919V37.5374Z" fill="#F50000"/>
<path d="M25.8761 58.4264C23.3677 58.4264 21.3313 56.1642 21.3313 53.3725C21.3313 50.5807 23.3841 48.3186 25.8761 48.3186C28.3682 48.3186 30.4251 50.5807 30.4251 53.3725C30.4251 56.1642 28.3723 58.4264 25.8761 58.4264ZM25.8433 44.406C20.4568 44.406 17.0328 48.4705 17.0328 53.393C17.0328 58.7056 20.5266 62.3431 25.8761 62.3431C30.9752 62.3431 34.7195 58.4921 34.7195 53.393C34.7195 47.7192 31.0245 44.406 25.8433 44.406Z" fill="#F50000"/>
<path d="M148.743 59.6539C148.743 59.1837 148.603 58.7241 148.342 58.3332C148.081 57.9423 147.71 57.6376 147.275 57.4577C146.841 57.2778 146.363 57.2307 145.902 57.3224C145.441 57.4142 145.017 57.6406 144.685 57.973C144.352 58.3054 144.126 58.729 144.034 59.1901C143.942 59.6512 143.99 60.1292 144.169 60.5635C144.349 60.9979 144.654 61.3692 145.045 61.6304C145.436 61.8916 145.895 62.031 146.366 62.031C146.678 62.0315 146.987 61.9704 147.276 61.8511C147.565 61.7319 147.827 61.5568 148.048 61.3359C148.269 61.1151 148.444 60.8528 148.563 60.5642C148.682 60.2755 148.743 59.9662 148.743 59.6539Z" fill="#F50000"/>
<path d="M0 38.7855V61.9859H15.1001V58.024H4.63925V38.7855H0Z" fill="#F50000"/>
<path d="M37.8523 37.5374V61.9859H42.3848V56.9155L44.064 55.0598L48.4158 61.9859H53.6996L46.9543 51.7426L53.0222 44.8535H47.9888L42.3848 51.7754V37.5374H37.8523Z" fill="#F50000"/>
<path d="M64.8382 54.8299C64.0926 54.4286 63.2586 54.2197 62.4118 54.2223C60.589 54.2223 59.1972 55.0803 59.1972 56.6856C59.1972 58.2908 60.3426 58.8985 61.484 58.8985C62.3809 58.8834 63.2359 58.5156 63.8637 57.8747C64.4914 57.2339 64.8416 56.3715 64.8382 55.4745V54.8299ZM64.8382 50.2604C64.8751 48.2077 63.9801 47.3866 62.1614 47.3866C60.6629 47.3866 59.6611 48.027 59.6611 49.0616C59.6812 49.2781 59.7454 49.4882 59.8499 49.6789C59.9545 49.8696 60.097 50.0368 60.2687 50.1701L56.0934 51.2417C55.623 50.6411 55.3711 49.8983 55.3791 49.1355C55.3791 46.1385 58.4828 44.3526 62.4118 44.3526C66.5174 44.3526 69.3337 45.8141 69.3337 50.3836V57.2029C69.3337 58.2005 69.7443 58.5577 70.2287 58.5577C70.5964 58.53 70.9457 58.3862 71.2264 58.1472V61.9653C70.3943 62.2266 69.5284 62.3649 68.6563 62.3758C66.193 62.3758 65.0886 60.6597 64.9819 58.4838C64.1238 61.0169 62.108 62.3758 59.6981 62.3758C56.8242 62.3758 54.521 60.4462 54.521 57.1988C54.521 53.7009 57.7726 51.915 61.3033 51.915C62.5289 51.8789 63.744 52.1499 64.8382 52.7032V50.2604Z" fill="#F50000"/>
<path d="M78.2919 37.5374H73.7594V61.9859H78.2919V37.5374Z" fill="#F50000"/>
<path d="M25.8761 58.4264C23.3677 58.4264 21.3313 56.1642 21.3313 53.3725C21.3313 50.5807 23.3841 48.3186 25.8761 48.3186C28.3682 48.3186 30.4251 50.5807 30.4251 53.3725C30.4251 56.1642 28.3723 58.4264 25.8761 58.4264ZM25.8433 44.406C20.4568 44.406 17.0328 48.4705 17.0328 53.393C17.0328 58.7056 20.5266 62.3431 25.8761 62.3431C30.9752 62.3431 34.7195 58.4921 34.7195 53.393C34.7195 47.7192 31.0245 44.406 25.8433 44.406Z" fill="#F50000"/>
<path d="M148.743 59.6539C148.743 59.1837 148.603 58.7241 148.342 58.3332C148.081 57.9423 147.71 57.6376 147.275 57.4577C146.841 57.2778 146.363 57.2307 145.902 57.3224C145.441 57.4142 145.017 57.6406 144.685 57.973C144.352 58.3054 144.126 58.729 144.034 59.1901C143.942 59.6512 143.99 60.1292 144.169 60.5635C144.349 60.9979 144.654 61.3692 145.045 61.6304C145.436 61.8916 145.895 62.031 146.366 62.031C146.678 62.0315 146.987 61.9704 147.276 61.8511C147.565 61.7319 147.827 61.5568 148.048 61.3359C148.269 61.1151 148.444 60.8528 148.563 60.5642C148.682 60.2755 148.743 59.9662 148.743 59.6539Z" fill="#F50000"/>
<path d="M0.00012207 38.7855V61.9859H15.1003V58.024H4.63937V38.7855H0.00012207Z" fill="#F50000"/>
<path d="M37.8522 37.5375V61.9859H42.3847V56.9156L44.0638 55.0599L48.4157 61.9859H53.6995L46.9541 51.7426L53.0221 44.8535H47.9887L42.3847 51.7754V37.5375H37.8522Z" fill="#F50000"/>
<path d="M64.8383 54.8299C64.0927 54.4286 63.2587 54.2197 62.4119 54.2223C60.5891 54.2223 59.1973 55.0803 59.1973 56.6856C59.1973 58.2909 60.3428 58.8985 61.4841 58.8985C62.3811 58.8834 63.236 58.5156 63.8638 57.8747C64.4916 57.2339 64.8417 56.3716 64.8383 55.4745V54.8299ZM64.8383 50.2605C64.8753 48.2077 63.9803 47.3866 62.1615 47.3866C60.663 47.3866 59.6612 48.027 59.6612 49.0616C59.6813 49.2782 59.7455 49.4882 59.8501 49.6789C59.9546 49.8696 60.0971 50.0368 60.2689 50.1701L56.0935 51.2417C55.6231 50.6411 55.3712 49.8983 55.3792 49.1355C55.3792 46.1385 58.483 44.3526 62.4119 44.3526C66.5175 44.3526 69.3339 45.8142 69.3339 50.3836V57.2029C69.3339 58.2005 69.7444 58.5577 70.2289 58.5577C70.5965 58.53 70.9458 58.3862 71.2265 58.1472V61.9653C70.3944 62.2266 69.5286 62.3649 68.6565 62.3759C66.1931 62.3759 65.0887 60.6598 64.982 58.4838C64.1239 61.0169 62.1081 62.3759 59.6982 62.3759C56.8243 62.3759 54.5211 60.4463 54.5211 57.1988C54.5211 53.7009 57.7727 51.915 61.3034 51.915C62.529 51.8789 63.7442 52.1499 64.8383 52.7032V50.2605Z" fill="#F50000"/>
<path d="M78.2919 37.5375H73.7594V61.9859H78.2919V37.5375Z" fill="#F50000"/>
<path d="M97.3624 61.9859H92.8463V51.8493C92.8463 49.349 91.6146 48.4951 89.8821 48.4951C88.0264 48.4951 86.1871 49.9567 86.1871 52.4569V61.9859H81.671V44.8535H86.1871V48.5485C87.0082 46.1221 89.061 44.4101 91.7173 44.4101C94.3735 44.4101 96.6439 45.6951 97.2146 48.8359C98.0726 46.2288 100.088 44.4101 102.925 44.4101C106.14 44.4101 108.636 46.196 108.636 50.5684V61.99H104.042V51.8493C104.042 49.349 102.868 48.4951 101.119 48.4951C99.2632 48.4951 97.4773 49.9567 97.3706 52.383L97.3624 61.9859Z" fill="#F50000"/>
<path d="M121.794 54.8299C121.047 54.4281 120.212 54.2192 119.364 54.2223C117.545 54.2223 116.153 55.0803 116.153 56.6856C116.153 58.2909 117.295 58.8985 118.44 58.8985C119.337 58.8834 120.192 58.5156 120.82 57.8747C121.447 57.2339 121.798 56.3716 121.794 55.4745V54.8299ZM121.794 50.2605C121.827 48.2077 120.936 47.3866 119.117 47.3866C117.615 47.3866 116.617 48.027 116.617 49.0616C116.637 49.2782 116.701 49.4882 116.806 49.6789C116.91 49.8696 117.053 50.0368 117.225 50.1701L113.049 51.2417C112.579 50.6411 112.327 49.8983 112.335 49.1355C112.335 46.1385 115.439 44.3526 119.364 44.3526C123.469 44.3526 126.29 45.8142 126.29 50.3836V57.2029C126.29 58.2005 126.7 58.5577 127.181 58.5577C127.55 58.5308 127.901 58.387 128.182 58.1472V61.9653C127.35 62.2263 126.484 62.3646 125.612 62.3759C123.149 62.3759 122.045 60.6598 121.917 58.4838C121.063 61.0169 119.064 62.3759 116.638 62.3759C113.764 62.3759 111.461 60.4463 111.461 57.1988C111.461 53.7009 114.708 51.915 118.243 51.915C119.468 51.8789 120.684 52.1499 121.778 52.7032L121.794 50.2605Z" fill="#F50000"/>
<path d="M135.851 56.1314C135.851 58.2375 136.709 58.7014 137.67 58.7014C138.631 58.7014 139.563 57.9501 140.24 56.6486L141.743 60.8938C140.239 61.8201 138.509 62.3144 136.742 62.3225C133.708 62.3225 131.319 61.0005 131.319 56.9319V48.3103H128.749V44.8535H131.495V40.6781L135.851 40.1403V44.8535H140.704V48.3144H135.851V56.1314Z" fill="#F50000"/>
<path d="M155.525 61.9859H151.009V44.8699H155.525V48.5403C155.95 47.3367 156.735 46.2936 157.775 45.5536C158.815 44.8136 160.058 44.4128 161.334 44.406C164.545 44.406 167.082 46.1878 167.082 50.5643V61.9777H162.566V51.8575C162.566 49.3614 161.281 48.5074 159.532 48.5074C159.008 48.4981 158.488 48.5938 158.002 48.789C157.515 48.9842 157.073 49.2748 156.701 49.6437C156.329 50.0127 156.035 50.4524 155.836 50.937C155.636 51.4216 155.536 51.9412 155.541 52.4652L155.525 61.9859Z" fill="#F50000"/>
<path d="M178.262 58.7754C181.296 58.7754 182.437 56.8129 182.437 53.3191C182.437 50.2892 181.328 47.9819 178.262 47.9819C175.589 47.9819 174.304 50.0881 174.304 53.3191C174.304 56.8868 175.733 58.7754 178.262 58.7754ZM178.372 44.406C183.71 44.406 187.216 48.0435 187.216 53.3561C187.216 58.2827 183.792 62.3431 178.405 62.3431C173.236 62.3431 169.525 59.0258 169.525 53.3561C169.525 48.257 173.269 44.406 178.372 44.406Z" fill="#F50000"/>
<path d="M28.9601 65.2949L35.0568 74.4626L37.9019 72.9107L33.4474 62.8193L28.9601 65.2949Z" fill="#F50000"/>
<path d="M25.8761 58.4264C23.3677 58.4264 21.3313 56.1642 21.3313 53.3725C21.3313 50.5807 23.3841 48.3186 25.8761 48.3186C28.3682 48.3186 30.4251 50.5807 30.4251 53.3725C30.4251 56.1642 28.3723 58.4264 25.8761 58.4264ZM25.8433 44.406C20.4568 44.406 17.0328 48.4705 17.0328 53.393C17.0328 58.7056 20.5266 62.3431 25.8761 62.3431C30.9752 62.3431 34.7195 58.4921 34.7195 53.393C34.7195 47.7192 31.0245 44.406 25.8433 44.406Z" fill="#F50000"/>
<path d="M148.743 59.6539C148.743 59.1838 148.603 58.7242 148.342 58.3333C148.081 57.9423 147.71 57.6377 147.275 57.4577C146.841 57.2778 146.363 57.2307 145.902 57.3225C145.441 57.4142 145.017 57.6406 144.685 57.973C144.352 58.3055 144.126 58.729 144.034 59.1901C143.942 59.6513 143.989 60.1292 144.169 60.5636C144.349 60.9979 144.654 61.3692 145.045 61.6304C145.436 61.8916 145.895 62.031 146.366 62.031C146.678 62.0315 146.987 61.9704 147.276 61.8512C147.564 61.7319 147.827 61.5568 148.048 61.336C148.268 61.1151 148.443 60.8529 148.563 60.5642C148.682 60.2756 148.743 59.9662 148.743 59.6539Z" fill="#F50000"/>
</svg>
