<?xml version="1.0" encoding="utf-8"?>
<!-- Generator: Adobe Illustrator 25.4.1, SVG Export Plug-In . SVG Version: 6.00 Build 0)  -->
<svg version="1.1" id="Layer_1" xmlns="http://www.w3.org/2000/svg" xmlns:xlink="http://www.w3.org/1999/xlink" x="0px" y="0px"
	 viewBox="0 0 99.2 99.2" style="enable-background:new 0 0 99.2 99.2;" xml:space="preserve">
<style type="text/css">
	.st0{fill:#FFFFFF;}
	.st1{fill:#063A7B;}
</style>
<g>
	<g>
		<path class="st0" d="M94.2,48.9c0,25-20.3,45.4-45.4,45.4c-25,0-45.4-20.3-45.4-45.4c0-25,20.3-45.4,45.4-45.4
			C73.9,3.5,94.2,23.8,94.2,48.9z"/>
	</g>
	<path class="st1" d="M79.6,18.2C71.4,10,60.5,5.5,48.9,5.5c-11.6,0-22.5,4.5-30.7,12.7c-16.9,16.9-16.9,44.5,0,61.4
		c8.5,8.5,19.6,12.7,30.7,12.7c11.1,0,22.2-4.2,30.7-12.7c8.2-8.2,12.7-19.1,12.7-30.7S87.8,26.4,79.6,18.2z M48.9,21.3
		c15.2,0,27.6,12.4,27.6,27.6c0,15.2-12.4,27.6-27.6,27.6c-15.2,0-27.6-12.4-27.6-27.6C21.3,33.7,33.7,21.3,48.9,21.3z M79.1,79.1
		c-16.7,16.7-43.8,16.7-60.4,0C3.8,64.2,2.2,40.9,14,24.3l11.8,8.3c-3.3,4.6-5.2,10.2-5.2,16.3c0,15.6,12.7,28.3,28.3,28.3
		c15.6,0,28.3-12.7,28.3-28.3c0-6.1-1.9-11.7-5.2-16.3l11.8-8.3c5.1,7.2,7.8,15.7,7.8,24.6C91.6,60.3,87.2,71,79.1,79.1z"/>
	<g>
		<path class="st1" d="M26.6,73.5c0.7-0.8,1.1-0.9,1.7-0.4l0.5,0.4L27,75.7l-0.5-0.4C25.9,74.7,25.9,74.2,26.6,73.5z M25.5,72.6
			c-0.4,0.4-0.8,0.9-0.7,1.6c0,0.2,0.1,0.4,0.1,0.6c-0.2-0.1-0.4-0.1-0.6-0.1c-0.6,0-0.9,0.4-1.3,0.8c-0.6,0.7-0.8,1.2-0.8,1.8
			c0,0.5,0.3,1,1,1.5l1.7,1.4l5.8-6.7L29,72.1c-0.6-0.5-1.2-0.8-1.7-0.7C26.7,71.4,26.2,71.8,25.5,72.6z M24.1,76.4
			c0.6-0.6,1-0.7,1.6-0.2l0.5,0.4l-1.6,1.8l-0.5-0.4C23.6,77.5,23.5,77,24.1,76.4z"/>
		<polygon class="st1" points="26.3,69.6 19.5,75.2 17.1,72.3 18.1,71.5 19.6,73.3 21.5,71.7 20.2,70.2 21.2,69.4 22.5,70.9 
			24.5,69.3 23,67.5 24,66.7 		"/>
		<path class="st1" d="M21.1,62.9c0.5,0.1,1,0.5,1.4,1.2c0.4,0.7,0.5,1.3,0.4,1.8c-0.2,0.6-0.6,1-1.4,1.4l-0.7-1.2
			c0.4-0.2,0.6-0.4,0.7-0.7c0.1-0.2,0-0.4-0.1-0.7c-0.2-0.3-0.3-0.4-0.6-0.5c-0.3-0.1-0.6,0.1-1,0.3C19,65,18.9,65.3,19,66l0.2,1.1
			c0.1,1-0.1,1.5-1.3,2.2c-0.7,0.4-1.4,0.5-2,0.3c-0.5-0.2-0.9-0.5-1.2-1c-0.4-0.6-0.5-1.2-0.3-1.6c0.2-0.6,0.6-1.1,1.4-1.5l0.7,1.2
			c-0.3,0.2-0.6,0.4-0.7,0.7c-0.1,0.2-0.1,0.4,0.1,0.7c0.1,0.2,0.3,0.3,0.5,0.4c0.2,0,0.5,0,0.9-0.2c0.6-0.4,0.8-0.6,0.7-1.2
			l-0.2-1.1c-0.2-1.1,0.2-1.7,1.5-2.4C19.9,62.9,20.5,62.7,21.1,62.9z"/>
		<polygon class="st1" points="19.6,57.9 16.7,60.4 18.2,60.6 20.3,59.8 20.8,61.2 12.4,64.1 12,62.8 15.9,61.4 11.3,61 10.9,59.7 
			14.9,60.1 19.1,56.4 		"/>
		<polygon class="st1" points="15.2,54.1 18.6,53.5 18.9,54.8 15.5,55.4 10.4,58.1 10.2,56.5 13.5,55.1 9.9,54.8 9.6,53.3 		"/>
		<polygon class="st1" points="10.7,48.6 18.3,48.5 18.3,49.9 10.7,50 10.7,51.5 9.5,51.5 9.4,47.2 10.7,47.1 		"/>
		<polygon class="st1" points="11.2,42.7 18.7,43.8 18.5,45.1 11,44.1 10.8,45.5 9.5,45.3 10.2,41 11.4,41.2 		"/>
		<polygon class="st1" points="19.1,41.6 10.6,39.1 11.7,35.5 12.9,35.9 12.2,38.1 14.6,38.8 15.2,36.9 16.4,37.3 15.8,39.2 
			18.3,39.9 19,37.7 20.2,38.1 		"/>
		<polygon class="st1" points="14.8,31.6 21.6,34.9 21,36.2 14.2,32.9 13.6,34.2 12.4,33.6 14.3,29.7 15.5,30.3 		"/>
	</g>
	<g>
		<path class="st1" d="M79.5,35.7c-0.9,0.4-1.4,0.3-1.7-0.4l-0.3-0.6l2.5-1.2l0.3,0.6C80.6,34.8,80.4,35.3,79.5,35.7z M80,37
			c0.5-0.2,1.1-0.5,1.3-1.1c0.1-0.2,0.1-0.4,0.1-0.6c0.1,0.1,0.3,0.2,0.5,0.3c0.5,0.2,1,0,1.5-0.2c0.8-0.4,1.3-0.7,1.5-1.3
			c0.2-0.5,0.1-1.1-0.2-1.8l-0.9-2l-8,3.7l0.9,2c0.3,0.7,0.7,1.2,1.2,1.3C78.5,37.5,79.1,37.4,80,37z M82.9,34.1
			c-0.8,0.4-1.2,0.2-1.5-0.4L81.1,33l2.2-1l0.3,0.6C83.8,33.3,83.7,33.7,82.9,34.1z"/>
		<polygon class="st1" points="78,39.3 86.6,37 87.6,40.6 86.4,40.9 85.7,38.7 83.3,39.3 83.8,41.2 82.6,41.6 82.1,39.6 79.6,40.3 
			80.2,42.5 79,42.9 		"/>
		<polygon class="st1" points="87,45.4 79.4,46.2 79.3,44.8 86.8,44 86.7,42.5 87.9,42.4 88.4,46.7 87.1,46.9 		"/>
		<polygon class="st1" points="79.6,48.5 88.4,48.9 88.2,52.7 87,52.6 87.1,50.3 84.6,50.2 84.5,52.2 83.2,52.1 83.3,50.1 80.8,50 
			80.7,52.3 79.4,52.3 		"/>
		<path class="st1" d="M78.7,55.5c0.2-0.8,0.6-1.2,1.1-1.5c0.9-0.5,2.1-0.2,3.8,0.2c1.7,0.4,3,0.6,3.6,1.4c0.3,0.5,0.5,1,0.4,1.8
			c-0.1,0.7-0.5,1.1-0.9,1.4c-0.5,0.3-1.2,0.4-2,0.3l0.3-1.4c0.5,0.1,1.2,0.1,1.4-0.6c0.1-0.3,0-0.6-0.2-0.7
			c-0.4-0.3-1.2-0.6-2.8-0.9c-1.6-0.3-2.5-0.5-2.9-0.3c-0.2,0.1-0.4,0.2-0.5,0.6c-0.1,0.6,0.3,1,0.9,1.1l1.3,0.3l0.2-0.8l1.1,0.2
			L83,58.8l-2.4-0.5C79,57.9,78.4,56.8,78.7,55.5z"/>
		<polygon class="st1" points="76.6,62 82.2,62.2 77.4,60.1 78,58.8 86.1,62.4 85.6,63.5 79.9,63.3 84.8,65.4 84.2,66.7 76.1,63.2 
					"/>
		<polygon class="st1" points="75.4,64.4 82.7,69.3 80.7,72.4 79.6,71.7 80.9,69.7 78.8,68.3 77.7,70 76.7,69.3 77.8,67.6 
			75.6,66.2 74.4,68.2 73.3,67.5 		"/>
		<polygon class="st1" points="72.5,68.4 79,74.5 78,75.5 72.5,70.3 70.9,72 70,71.2 		"/>
		<path class="st1" d="M66.9,74.3c0.1-0.5,0.4-1,1-1.5c0.6-0.5,1.2-0.7,1.7-0.6c0.6,0.1,1.1,0.4,1.6,1.1l-1.1,0.9
			c-0.3-0.4-0.5-0.6-0.8-0.6c-0.2,0-0.4,0-0.7,0.2c-0.3,0.2-0.4,0.4-0.4,0.6c0,0.3,0.1,0.5,0.4,0.9c0.6,0.7,0.9,0.8,1.6,0.6l1.1-0.3
			c0.9-0.3,1.5-0.1,2.3,1c0.5,0.6,0.7,1.3,0.6,1.9c-0.1,0.5-0.4,1-0.9,1.4c-0.6,0.4-1.1,0.6-1.6,0.6c-0.6-0.1-1.2-0.5-1.7-1.1
			l1.1-0.9c0.2,0.3,0.5,0.5,0.8,0.6c0.2,0,0.4,0,0.7-0.2c0.2-0.2,0.3-0.4,0.3-0.6c0-0.2-0.1-0.5-0.4-0.8c-0.4-0.6-0.7-0.7-1.3-0.5
			l-1.1,0.3c-1.1,0.3-1.7,0.1-2.6-1.1C67.1,75.5,66.8,74.9,66.9,74.3z"/>
		<polygon class="st1" points="65.3,74.8 69.6,82.5 66.4,84.3 65.7,83.2 67.8,82.1 66.6,79.9 64.8,80.9 64.2,79.8 65.9,78.8 
			64.7,76.5 62.7,77.7 62,76.6 		"/>
	</g>
	<g>
		<path class="st0" d="M27.6,27c-0.6,0.6-1.2,0.7-1.7,0.7c-1-0.1-1.9-1-3.1-2.3c-1.2-1.2-2.1-2.2-2.2-3.2c0-0.6,0.1-1.1,0.7-1.7
			c0.5-0.5,1-0.7,1.5-0.7c0.6,0,1.2,0.3,1.8,0.8l-1,1c-0.4-0.3-0.9-0.8-1.5-0.2c-0.2,0.2-0.3,0.5-0.2,0.7c0.1,0.5,0.7,1.2,1.8,2.3
			c1.1,1.2,1.8,1.8,2.3,1.9c0.2,0.1,0.5,0,0.7-0.2c0.4-0.4,0.3-1-0.2-1.4l-1-1L25,24.3l-0.8-0.8l1.6-1.6l1.7,1.8
			C28.6,24.8,28.6,26.1,27.6,27z"/>
		<path class="st0" d="M30.2,24.6l-5-7.3l3.1-2.1l0.7,1l-1.9,1.3l1.4,2.1l1.7-1.1l0.7,1l-1.7,1.1l1.5,2.1l1.9-1.3l0.7,1L30.2,24.6z"
			/>
		<path class="st0" d="M35.2,16.6c0.7,1.5,1,2.3,1,2.8c0,0.2-0.2,0.4-0.5,0.6c-0.3,0.1-0.5,0.1-0.7,0c-0.4-0.3-0.8-1.1-1.5-2.5
			c-0.7-1.5-1-2.3-0.9-2.8c0-0.2,0.2-0.4,0.5-0.6c0.3-0.1,0.6-0.1,0.8,0C34.1,14.3,34.6,15.1,35.2,16.6z M36.5,16
			c-0.7-1.6-1.3-2.8-2.2-3.2c-0.5-0.2-1.1-0.3-1.9,0c-0.8,0.4-1.1,0.9-1.3,1.4c-0.3,1,0.3,2.1,1,3.7c0.7,1.6,1.3,2.8,2.2,3.2
			c0.5,0.2,1.1,0.3,1.9,0c0.8-0.4,1.1-0.9,1.3-1.4C37.8,18.7,37.2,17.6,36.5,16z"/>
		<path class="st0" d="M41.6,19.2c-0.8,0.2-1.4,0-1.8-0.3c-0.8-0.6-1.1-1.8-1.5-3.5c-0.4-1.7-0.7-2.9-0.3-3.8
			c0.3-0.5,0.7-0.9,1.5-1.1c0.7-0.2,1.2-0.1,1.7,0.2c0.5,0.3,0.9,0.9,1.1,1.6l-1.4,0.3c-0.1-0.5-0.4-1.1-1.1-1
			c-0.3,0.1-0.5,0.3-0.6,0.5c-0.2,0.5,0,1.4,0.4,2.9c0.4,1.6,0.6,2.4,1,2.8c0.2,0.2,0.4,0.3,0.7,0.2c0.6-0.1,0.7-0.7,0.6-1.3
			l-0.3-1.3l-0.8,0.2l-0.3-1.1l2.2-0.5l0.6,2.4C43.6,17.8,42.9,18.9,41.6,19.2z"/>
		<path class="st0" d="M47.7,12c0,0.7,0,1.4-0.8,1.4l-0.9,0l-0.2-2.7l0.9,0C47.5,10.7,47.7,11.3,47.7,12z M49.8,18.2l-1.5-3.9
			c0.8-0.5,1-1.3,0.9-2.4c-0.1-1.8-0.8-2.6-2.4-2.5l-2.2,0.1l0.5,8.8l1.4-0.1l-0.2-3.6l0.8,0l1.4,3.6L49.8,18.2z"/>
		<path class="st0" d="M54.1,15.6l-1.5-0.2l1.2-3.6L54.1,15.6z M55.8,18.9l-1-9.1l-1.3-0.2l-3.3,8.5l1.5,0.2l0.6-1.7l2,0.3l0.1,1.8
			L55.8,18.9z"/>
		<path class="st0" d="M60.3,12.4l-0.8,2.4l1.9,0.6L61,16.6L59.1,16L58,19.6l-1.3-0.4l2.7-8.4l3.5,1.1l-0.4,1.2L60.3,12.4z"/>
		<path class="st0" d="M61.2,20.8l3.7-8l1.3,0.6l-3.7,8L61.2,20.8z"/>
		<path class="st0" d="M67.2,23.6c-0.5,0.1-1.1,0-1.8-0.4c-0.6-0.4-1-0.9-1.1-1.4c-0.1-0.6,0-1.1,0.6-1.9l1.2,0.8
			c-0.3,0.4-0.4,0.7-0.3,1c0,0.2,0.2,0.4,0.4,0.5c0.3,0.2,0.5,0.2,0.7,0.2c0.3-0.1,0.5-0.3,0.7-0.7c0.5-0.8,0.5-1.1,0.1-1.7L67,19
			c-0.5-0.8-0.6-1.4,0.2-2.5c0.4-0.7,1-1.1,1.6-1.2c0.5-0.1,1,0,1.6,0.4c0.6,0.4,0.9,0.8,1,1.3c0.1,0.6-0.1,1.2-0.5,2l-1.2-0.8
			c0.2-0.3,0.4-0.6,0.3-0.9c0-0.2-0.1-0.4-0.4-0.6c-0.2-0.2-0.4-0.2-0.6-0.1c-0.2,0.1-0.5,0.3-0.7,0.6c-0.4,0.6-0.4,0.9,0,1.4
			l0.6,0.9c0.7,0.9,0.6,1.6-0.2,2.8C68.3,23.1,67.8,23.5,67.2,23.6z"/>
		<path class="st0" d="M70.9,27.5l1.5-3.6l-1.4,0.5L69.3,26l-1-1l6.1-6.5l1,1l-2.9,3l4.3-1.7l1,1L74,23.3l-2.1,5.2L70.9,27.5z"/>
	</g>
	<path class="st1" d="M48.9,22.4c-14.6,0-26.5,11.9-26.5,26.5c0,14.6,11.9,26.5,26.5,26.5c14.6,0,26.5-11.9,26.5-26.5
		C75.4,34.3,63.5,22.4,48.9,22.4z M60.6,57.7v2.8h-2.9v11.3L48.9,63l-8.8,8.8V60.6h-2.9l0-2.8H25.9l8.8-8.8l-8.8-8.8h11.2l0-3h2.9
		V26l8.8,8.8l8.8-8.8v11.1h2.9v3h11.2L63,48.9l8.8,8.8H60.6z"/>
	<polygon class="st1" points="47.2,49.6 36,49.6 29.2,56.4 40.5,56.4 	"/>
	<polygon class="st1" points="41.4,57.3 41.4,68.6 48.2,61.8 48.2,50.6 	"/>
	<polygon class="st1" points="49.5,50.6 49.5,61.8 56.3,68.6 56.3,57.3 	"/>
	<polygon class="st1" points="56.3,40.5 56.3,29.3 49.5,36.1 49.5,47.3 	"/>
	<polygon class="st1" points="50.5,48.3 61.7,48.3 68.5,41.5 57.2,41.5 	"/>
	<polygon class="st1" points="47.2,48.3 40.5,41.5 29.2,41.5 36,48.3 	"/>
	<polygon class="st1" points="50.5,49.6 57.2,56.4 68.5,56.4 61.7,49.6 	"/>
	<polygon class="st1" points="41.4,40.5 48.2,47.3 48.2,36.1 41.4,29.3 	"/>
	<path class="st1" d="M48.9,2.8c-25.4,0-46,20.7-46,46c0,12.3,4.8,23.9,13.5,32.6c8.7,8.7,20.3,13.5,32.6,13.5
		c12.3,0,23.9-4.8,32.6-13.5c8.7-8.7,13.5-20.3,13.5-32.6C94.9,23.5,74.3,2.8,48.9,2.8z M80.5,80.5C72,88.9,60.8,93.5,48.9,93.5
		c-11.9,0-23.1-4.6-31.6-13.1C8.9,72,4.2,60.8,4.2,48.9c0-24.6,20-44.7,44.7-44.7c24.6,0,44.7,20,44.7,44.7
		C93.5,60.8,88.9,72,80.5,80.5z"/>
</g>
</svg>
